HIERARCHY
ROOT hip
{
	OFFSET 0.000000 0.000000 0.000000 
	CHANNELS 6 Xposition Yposition Zposition Zrotation Xrotation Yrotation
	JOINT abdomen
	{
		OFFSET 0.000000 3.402643 0.000000 
		CHANNELS 3 Zrotation Xrotation Yrotation
		JOINT chest
		{
			OFFSET 0.000000 8.438565 -0.680529 
			CHANNELS 3 Zrotation Xrotation Yrotation
			JOINT neck
			{
				OFFSET 0.000000 10.207942 -0.272212 
				CHANNELS 3 Zrotation Xrotation Yrotation
				JOINT head
				{
					OFFSET 0.000000 3.130431 0.000000 
					CHANNELS 3 Zrotation Xrotation Yrotation
					End Site
					{
						OFFSET 0.000000 3.130435 0.000000 
					}
				}
			}
			JOINT lCollar
			{
				OFFSET 3.470700 6.669187 -0.816635 
				CHANNELS 3 Zrotation Xrotation Yrotation
				JOINT lShldr
				{
					OFFSET 3.198488 0.000000 0.000000 
					CHANNELS 3 Zrotation Xrotation Yrotation
					JOINT lForeArm
					{
						OFFSET 10.139888 0.000000 0.000000 
						CHANNELS 3 Zrotation Xrotation Yrotation
						JOINT lHand
						{
							OFFSET 8.370511 0.000000 0.000000 
							CHANNELS 3 Zrotation Xrotation Yrotation
							End Site
							{
								OFFSET 4.083176 0.000000 0.000000 
							}
						}
					}
				}
			}
			JOINT rCollar
			{
				OFFSET -3.470700 6.669187 -0.816635 
				CHANNELS 3 Zrotation Xrotation Yrotation
				JOINT rShldr
				{
					OFFSET -3.198488 0.000000 0.000000 
					CHANNELS 3 Zrotation Xrotation Yrotation
					JOINT rForeArm
					{
						OFFSET -10.139888 0.000000 0.000000 
						CHANNELS 3 Zrotation Xrotation Yrotation
						JOINT rHand
						{
							OFFSET -8.370511 0.000000 0.000000 
							CHANNELS 3 Zrotation Xrotation Yrotation
							End Site
							{
								OFFSET -4.083176 0.000000 0.000000 
							}
						}
					}
				}
			}
		}
	}
	JOINT lThigh
	{
		OFFSET 5.308129 -1.633274 1.361059 
		CHANNELS 3 Zrotation Xrotation Yrotation
		JOINT lShin
		{
			OFFSET -2.041588 -20.007561 0.000000 
			CHANNELS 3 Zrotation Xrotation Yrotation
			JOINT lFoot
			{
				OFFSET 0.000000 -19.190928 -1.224953 
				CHANNELS 3 Zrotation Xrotation Yrotation
				End Site
				{
					OFFSET 0.000000 -2.449906 4.627600 
				}
			}
		}
	}
	JOINT rThigh
	{
		OFFSET -5.308129 -1.633274 1.361059 
		CHANNELS 3 Zrotation Xrotation Yrotation
		JOINT rShin
		{
			OFFSET 2.041588 -20.007561 0.000000 
			CHANNELS 3 Zrotation Xrotation Yrotation
			JOINT rFoot
			{
				OFFSET 0.000000 -19.190928 -1.224953 
				CHANNELS 3 Zrotation Xrotation Yrotation
				End Site
				{
					OFFSET 0.000000 -2.449906 4.627600 
				}
			}
		}
	}
}
MOTION
Frames: 9
Frame Time: 0.033333
5.441529 12.672651 1.321789 3.687362 -19.454872 -39.863506 -0.000000 -0.000002 -0.000000 5.772807 23.000511 -64.605911 7.016155 7.046980 -19.115801 -0.954937 -15.993991 -0.145955 -2.000757 -0.069240 1.990978 14.465611 4.347186 -40.197727 5.934565 5.419639 -86.699471 12.653448 26.928066 -6.761369 1.990970 -0.069577 -2.000746 72.496399 43.933044 7.359576 -5.636208 13.898553 24.036276 -76.194878 10.094224 -13.811677 65.563515 -76.063736 65.074898 -167.206375 40.965221 156.050323 9.087539 -36.305874 2.474864 -126.861824 -67.597298 -121.676689 132.968796 65.552361 -109.228958 -11.152453 -31.784698 -26.233337 
4.814434 12.280139 1.242319 4.187738 -17.914104 -36.307453 -0.000000 -0.000002 -0.000000 20.277912 26.515505 -86.505119 6.295574 -5.202987 -5.841748 -0.954937 -15.993991 -0.145955 -2.000757 -0.069240 1.990978 6.408129 -4.729750 -28.161034 5.831926 3.670399 -103.255821 4.498350 37.867588 7.330874 1.990970 -0.069577 -2.000746 57.465759 49.408081 25.567461 -7.150410 13.161558 30.632246 -77.387550 11.106781 -10.113235 76.848251 -82.065826 78.139107 -166.913040 41.960300 155.804718 10.760261 -32.904243 5.859933 -98.013542 -63.662380 -106.952019 81.312813 71.726265 -60.737019 -8.860627 -33.006390 -24.236759 
4.221389 11.877858 1.163547 4.968168 -17.175386 -33.255299 -0.000000 -0.000002 -0.000000 34.567554 25.340088 -107.397217 9.205702 -16.611824 7.790985 -0.954937 -15.993991 -0.145955 -2.000757 -0.069240 1.990978 -5.213667 -6.235652 -26.605215 5.858370 3.797024 -101.979568 -1.519464 48.023277 17.168798 1.990970 -0.069577 -2.000746 42.316219 49.792934 43.339252 -8.741924 12.137982 38.075226 -78.649254 11.399625 -5.140742 100.197205 -87.341331 102.646996 -166.668015 42.165550 155.702820 11.006249 -31.560009 8.419127 -77.908142 -60.645447 -100.535690 36.032413 62.192177 -18.902946 -2.622299 -33.189266 -20.333956 
3.769183 11.478495 1.078064 6.235721 -18.335730 -31.379938 -0.000000 -0.000002 -0.000000 43.826050 22.637049 -120.979080 13.785754 -23.952648 18.471766 -0.954937 -15.993991 -0.145955 -2.000757 -0.069240 1.990978 -14.976967 -8.685402 -27.876284 5.947651 5.189001 -88.838097 8.080387 53.334259 10.074771 1.990970 -0.069577 -2.000746 36.858074 47.189739 50.875835 -9.985016 11.090528 44.405987 -81.455101 9.740821 1.961889 -133.379364 -88.239075 -130.543350 -166.595169 42.194885 155.654099 8.870194 -31.409718 9.561268 -65.556137 -60.554298 -97.103546 18.288845 50.383366 -4.824516 5.027042 -31.927626 -17.535522 
3.530284 11.110586 0.977503 8.208889 -22.359999 -31.105490 -0.000000 -0.000002 -0.000000 46.715111 23.059542 -124.507942 16.297213 -25.996260 21.670256 -0.954937 -15.993991 -0.145955 -2.000757 -0.069240 1.990978 -17.198162 -10.347607 -32.875656 5.829526 6.038701 -80.758392 17.270418 51.751701 4.467019 1.990970 -0.069577 -2.000746 43.322060 41.481106 43.439762 -11.774567 9.085860 54.913700 -82.251007 8.284363 10.294117 104.126152 -87.795662 109.231644 -166.412415 45.202541 155.234100 8.230122 -28.955969 8.652268 -60.918121 -61.612743 -93.923721 11.448223 47.442852 -0.795306 10.432588 -31.120308 -15.566812 
3.364103 10.878832 0.855808 11.002321 -28.574722 -31.619120 -0.000000 -0.000002 -0.000000 46.456940 26.486795 -122.564560 17.137896 -25.459980 19.936506 -0.954937 -15.993991 -0.145955 -2.000757 -0.069240 1.990978 -13.718258 -10.973396 -33.804050 5.945210 5.248908 -88.276855 16.254866 49.634964 11.779476 1.990970 -0.069577 -2.000746 53.510235 28.720388 31.457367 -13.778276 5.276526 71.516647 -75.565849 8.616661 17.202061 75.288658 -78.920845 84.883606 -164.617523 52.783432 153.325668 9.322550 -24.552597 7.118763 -59.697109 -59.570313 -89.148964 17.346315 50.479595 -4.240318 10.940806 -30.731127 -13.368186 
3.236486 10.903661 0.723004 14.385406 -36.283497 -32.355679 -0.000000 -0.000002 -0.000000 43.601948 31.698860 -116.691620 16.896809 -23.334093 15.220101 -0.954937 -15.993991 -0.145955 -2.000757 -0.069240 1.990978 -10.081017 -9.366690 -39.384327 5.944393 5.065498 -90.008385 21.231567 45.978966 13.485426 1.990970 -0.069577 -2.000746 62.912285 11.307157 23.660183 -14.575459 1.464489 86.395088 -64.095680 8.428269 20.979273 61.280018 -70.998459 74.881157 -159.577896 62.437946 148.680161 7.874576 -20.227451 6.860528 -61.542332 -57.733818 -84.665825 26.709675 57.202297 -11.057571 10.612469 -30.310528 -10.651991 
3.142943 11.245954 0.590894 18.206671 -44.827888 -32.941269 -0.000000 -0.000002 -0.000000 37.904011 37.338287 -107.226479 16.097433 -20.051348 8.963854 -0.954937 -15.993991 -0.145955 -2.000757 -0.069240 1.990978 -6.597807 -6.289005 -47.850277 5.926327 5.427660 -86.621330 30.425589 40.209236 10.999961 1.990970 -0.069577 -2.000746 70.374573 -7.966996 23.571129 -14.527501 -1.337890 97.048874 -50.111031 7.727867 20.477392 47.143257 -63.661774 64.476448 -145.906448 72.975792 135.761108 5.401214 -16.301517 8.671504 -65.090195 -56.663841 -80.293335 41.742958 65.209259 -23.921406 9.682588 -29.796064 -7.918454 
3.078954 11.843032 0.471278 22.443407 -53.563763 -32.953419 -0.000000 -0.000002 -0.000000 29.480099 41.990540 -94.853645 15.186305 -16.061659 2.529674 -0.954937 -15.993991 -0.145955 -2.000757 -0.069240 1.990978 -3.276536 -2.545320 -57.765251 5.797055 6.196103 -79.245628 40.620266 31.527872 7.337868 1.990970 -0.069577 -2.000746 76.920540 -24.645456 31.296625 -14.299753 -2.757669 102.515335 -37.098156 6.512683 17.587868 33.911842 -56.260921 55.082039 -94.856026 80.580795 85.724998 3.067567 -11.848399 12.073097 -69.048309 -56.203449 -75.720993 67.218285 71.125099 -47.398010 8.029936 -29.003124 -5.584778 
